<svg width="48" height="48" fill="none" xmlns="http://www.w3.org/2000/svg"><rect width="48" height="48" rx="12" fill="url(#a)"/><path d="M13.583 36.084h5.834c.92 0 1.666-.747 1.666-1.667V13.583c0-.92-.746-1.666-1.666-1.666h-5.834c-.92 0-1.666.746-1.666 1.666v20.834c0 .92.746 1.667 1.666 1.667zm15-15h5.834c.92 0 1.666-.746 1.666-1.667v-5.834c0-.92-.746-1.666-1.666-1.666h-5.834c-.92 0-1.666.746-1.666 1.666v5.834c0 .92.746 1.667 1.666 1.667zm0 15h5.834c.92 0 1.666-.747 1.666-1.667v-5.834c0-.92-.746-1.666-1.666-1.666h-5.834c-.92 0-1.666.746-1.666 1.666v5.834c0 .92.746 1.667 1.666 1.667z" fill="#EB92D5" fill-opacity=".15" stroke="#EB92D5" stroke-width="2" stroke-linecap="round" stroke-linejoin="round"/><defs><linearGradient id="a" x1="24" y1="0" x2="24" y2="48" gradientUnits="userSpaceOnUse"><stop stop-color="#20232C"/><stop offset="1" stop-color="#14171F"/></linearGradient></defs></svg>